<svg xmlns:xlink="http://www.w3.org/1999/xlink" width="284" height="55" viewBox="0 0 284 55" fill="none" xmlns="http://www.w3.org/2000/svg">
<path d="M1.52588e-05 0H6.57584V30.6549C6.57584 40.4268 14.4862 48.3371 24.258 48.4242V55C10.8405 55 1.52588e-05 44.0725 1.52588e-05 30.6549V0Z" fill="black"/>
<path d="M72.8611 54.5552H66.2853V47.3605C61.8418 52.0699 55.5319 55 48.6031 55C35.1855 55 24.258 44.0726 24.258 30.655C24.258 17.2374 35.1855 6.39697 48.6031 6.39697C62.0207 6.39697 72.8611 17.2374 72.8611 30.655V54.5552ZM66.2853 30.655C66.2853 20.8831 58.3749 12.9728 48.6031 12.9728C38.8312 12.9728 30.8339 20.8831 30.8339 30.655C30.8339 40.4269 38.8312 48.4242 48.6031 48.4242C58.3749 48.4242 66.2853 40.4269 66.2853 30.655Z" fill="black"/>
<path d="M123.07 13.4176L88.4159 47.9794H123.248V54.5552H79.1759V47.9794L113.738 13.4176H78.997V6.8418H123.07V13.4176Z" fill="black"/>
<path d="M174.496 54.5552H167.92V47.3605C163.477 52.0699 157.167 55 150.238 55C136.821 55 125.893 44.0726 125.893 30.655C125.893 17.2374 136.821 6.39697 150.238 6.39697C163.656 6.39697 174.496 17.2374 174.496 30.655V54.5552ZM167.92 30.655C167.92 20.8831 160.01 12.9728 150.238 12.9728C140.466 12.9728 132.469 20.8831 132.469 30.655C132.469 40.4269 140.466 48.4242 150.238 48.4242C160.01 48.4242 167.92 40.4269 167.92 30.655Z" fill="black"/>
<path d="M229.607 54.5551H223.032V30.8338C223.032 21.062 215.126 13.0646 205.349 13.0646C195.573 13.0646 187.667 21.062 187.667 30.8338V54.5551H181.091V30.6549C181.091 17.2373 191.932 6.48877 205.349 6.48877C218.767 6.48877 229.607 17.4162 229.607 30.8338V54.5551Z" fill="black"/>
<path d="M283.399 54.5552H276.823V47.3605C272.379 52.0699 266.07 55 259.141 55C245.723 55 234.796 44.0726 234.796 30.655C234.796 17.2374 245.723 6.39697 259.141 6.39697C272.558 6.39697 283.399 17.2374 283.399 30.655V54.5552ZM276.823 30.655C276.823 20.8831 268.913 12.9728 259.141 12.9728C249.369 12.9728 241.372 20.8831 241.372 30.655C241.372 40.4269 249.369 48.4242 259.141 48.4242C268.913 48.4242 276.823 40.4269 276.823 30.655Z" fill="black"/>
</svg>